<svg version="1.2" xmlns="http://www.w3.org/2000/svg" viewBox="0 0 515 515" width="515" height="515">
	<style>
		.s0 { fill: #000000 } 
	</style>
	<g>
		<path class="s0" d="m232 20.4c-0.3 0.2-5 1.2-10.5 2-15.4 2.5-29.2 5.7-35.2 8.2-1.7 0.8-3.6 1.4-4.2 1.4-0.6 0-2.5 0.6-4.3 1.4-1.8 0.8-5.8 2.4-8.8 3.6-8.1 3.2-21.6 9.9-29 14.3-7.7 4.6-17.3 10.8-18 11.7-0.3 0.3-1.7 1.3-3.2 2.2-15.3 9.8-54 51.5-60.1 64.8-0.4 0.8-1.6 2.8-2.7 4.5-2.6 4-14.3 27.9-16.5 33.5-0.9 2.5-2.1 5.6-2.6 6.8-4.6 11.7-9.7 31.9-12.4 49l-1.5 9.2v23.6 23.6l1.5 9.2c2 11.8 4.4 23.2 5.7 27.6 0.6 1.9 1.5 5.1 1.9 7 0.9 4.4 4.4 14.4 7.5 21.7 0.8 1.7 1.4 3.4 1.4 3.8 0 0.8 7.8 16.4 12.3 24.5 5.5 10.1 20.4 31.6 25.6 37 0.9 0.9 4.7 5.1 8.5 9.4 10.9 12.2 28.2 26.8 45.1 38.1 9.9 6.5 36.9 20.5 39.7 20.5 0.8 0 2.3 0.7 3.4 1.5 1 0.8 2.7 1.5 3.6 1.5 1 0 3.2 0.6 5 1.4 12.4 5.2 36.6 9.9 59.8 11.7l14.4 1.1 14.1-1.1c18.8-1.6 34-4.4 47.6-8.6 2.6-0.8 5.5-1.5 6.5-1.5 1.1 0 2.8-0.7 3.8-1.5 1.1-0.8 2.8-1.5 3.8-1.5 0.9 0 3.4-0.7 5.5-1.7 8.1-3.5 16.9-7.5 18.3-8.3 0.8-0.5 4.2-2.3 7.5-4 3.4-1.6 8.5-4.6 11.4-6.5 2.9-1.9 5.5-3.5 5.7-3.5 2 0 29.8-22.5 38.3-31.1 8.9-8.8 25.7-29.6 31.8-39.4 20.5-32.6 30.7-59.4 36.9-97.5l1.7-10.5v-23-23l-1.7-10.5c-1-5.8-2.2-12.3-2.8-14.5-0.6-2.2-1.5-5.8-1.9-8-1.1-6-3-12.6-4.5-16.2-0.8-1.7-1.4-4-1.4-5.1 0-1.2-0.4-2.3-0.9-2.6-0.5-0.3-1.2-1.8-1.5-3.3-0.4-1.6-1.3-4.3-2.2-6-0.8-1.8-2.1-4.7-2.8-6.5-3.6-8.5-13-26.3-15.2-28.9-0.8-0.8-1.4-1.8-1.4-2.2 0-0.3-2.1-3.6-4.6-7.4-25.2-36.9-65.1-69.2-105.4-85.3-3-1.2-7-2.8-8.8-3.6-1.8-0.8-3.7-1.4-4.3-1.4-0.6 0-2.5-0.6-4.2-1.4-5.7-2.4-18.5-5.6-33.7-8.3l-8.5-1.5-26.5-0.5c-14.6-0.2-26.8-0.2-27 0.1zm50 22.6c29.1 4.4 47.4 10.3 73.7 23.7 15.3 7.8 39.1 24.4 39.2 27.4 0.1 0.9-3.8 5.4-8.6 10-4.9 4.6-10.9 10.6-13.5 13.3l-4.7 4.8-6.8 2.5c-3.7 1.3-8.1 2.8-9.8 3.2-1.6 0.5-4.1 1.3-5.5 1.8-3.7 1.5-9.1 3.4-12.5 4.3-1.6 0.5-9.5 3.2-17.5 6-8 2.8-15.8 5.5-17.5 5.9-1.6 0.5-4.1 1.3-5.5 1.9-1.4 0.5-5.2 1.8-8.5 2.8-3.3 1-6.4 2.1-7 2.5-0.5 0.3-4.4 1.7-8.5 2.9-4.1 1.3-7.9 2.7-8.4 3.2-1.2 0.9-6 1.1-6.9 0.2-0.7-0.7-9.8-4-29.2-10.4-6.6-2.2-12.9-4.4-14-4.9-3.1-1.3-8.7-3.2-12-4.1-1.6-0.5-4.6-1.4-6.5-2.1-1.9-0.6-5.1-1.7-7-2.4-1.9-0.7-5.1-1.8-7-2.4-1.9-0.7-4.8-1.6-6.5-2.1-3.9-1.1-9.1-2.9-13.3-4.6-1.8-0.8-4-1.4-5-1.4-4.1 0-34.2-27.2-34.2-30.9 0-0.9 2.8-3.6 6.2-6.1 8-5.9 19.1-13.5 20.9-14.3 0.8-0.4 3-1.7 4.9-2.8 9.9-6.1 31.4-16 38.5-17.9 1.7-0.5 4.4-1.3 6-1.8 9.2-3.2 25.3-6.8 34.5-7.8 3.6-0.3 8.8-1 11.5-1.5 6.6-1 31.1-0.4 40.5 1.1zm-168.1 72.2c4.2 4.6 35.2 35.9 68.9 69.7 33.6 33.8 61.2 61.7 61.2 61.9 0 0.3-8.7 9.1-19.3 19.6-10.6 10.5-20.6 20.7-22.3 22.7-1.8 2-4.1 4-5.2 4.3l-2 0.7-3.9-5.8c-7.8-11.7-25.7-36.5-31.6-43.8-1.1-1.5-11.2-15.5-13.9-19.3-1.3-1.8-2.8-3.9-3.3-4.5-0.6-0.7-2.2-3.1-3.7-5.4-2.4-3.7-6.2-6.3-7.4-5-0.2 0.2 0 5.8 0.5 12.3 0.6 6.5 1.2 38.1 1.5 70.1l0.4 58.3h-1.3c-0.7 0-7.1-6.2-14.3-13.8-7.1-7.5-26.8-27.4-43.6-44.2l-30.6-30.5v-8.5c0-4.7 0.5-11.4 1-15 0.6-3.6 1.5-10 2-14.3 0.5-4.3 1.4-9.3 1.9-11 0.9-3.1 2.5-9.7 4.1-16.7 1-4.3 3.7-11.9 5-14.2 0.6-1 1-2.5 1-3.4 0-0.9 0.6-2.8 1.4-4.2 0.7-1.5 3.9-7.9 7-14.3 3.2-6.4 7.3-14 9.2-16.9 1.9-2.8 3.4-5.3 3.4-5.5 0-2.7 23.2-31.5 25.3-31.5 0.5 0 4.4 3.7 8.6 8.2zm301.3-2c26 30.3 42.5 63.9 50.2 101.8 2.8 14 4.6 28.7 4.6 38.2v9.5l-24.7 24.4c-22.7 22.4-41.3 41.4-56.7 57.7-3.2 3.4-6.4 6.2-7 6.2h-1.3l0.4-53.3c0.1-29.2 0.8-61 1.4-70.5 1.2-18.4 1.1-19.2-2.4-17.3-1.9 1-3.4 3.1-8.2 11-1.4 2.3-10.3 14.6-29 40-8.8 11.9-17.7 24.2-19.9 27.4-2.1 3.1-4.2 5.7-4.7 5.7-1 0-48.2-47-47.7-47.5 0.2-0.2 27.8-28 61.3-61.8 33.6-33.7 64.4-65 68.5-69.5 9.1-9.7 8.6-9.7 15.2-2zm-235.7 36.7c0.3 0.5 2 1.3 3.7 1.7 1.8 0.3 3.9 1 4.8 1.5 1.5 0.9 4.6 2 18 6.5 4.1 1.4 7.9 2.9 8.5 3.3 0.5 0.5 2.1 1.1 3.5 1.4 2.7 0.6 10.2 3.2 13.5 4.6 1.1 0.5 2.9 1.2 4 1.5 1.1 0.2 6 1.9 10.8 3.5 11.8 4.1 9.8 4.4 37.2-5.4 5.5-2 11.5-4 13.3-4.5 1.8-0.4 3.8-1.2 4.5-1.8 0.7-0.5 2.3-1.2 3.7-1.5 1.4-0.3 5-1.5 8-2.7 3-1.2 6.4-2.4 7.5-2.7 3.3-0.8 12.9-4.6 14-5.5 0.5-0.4 2-0.8 3.3-0.8h2.4l-0.4 1.1c-0.5 1.5-82 82.9-83 82.9-0.4 0-5.1-4.6-10.5-10.3-5.4-5.6-15.9-16.2-23.3-23.5-32.3-31.8-49-48.6-49-49.4 0-1.1 4.8-1 5.5 0.1zm-23.4 116.8c6.9 10.2 19.5 27 22.9 30.8 1.5 1.6 3.5 4.3 4.4 6l1.7 3-17.1 17.2c-9.3 9.5-17.5 17.3-18 17.3h-1v-40.3c0-34.7 0.3-41.7 1.5-41.7 0.2 0 2.6 3.5 5.6 7.7zm208.9 28.7c0 19.4 0.3 37.4 0.6 39.9l0.7 4.7-1.6 0.6-1.5 0.5-17.1-17.3c-9.4-9.5-17.1-17.5-17.1-17.7 0-0.2 6-8.3 13.3-18 7.4-9.7 14.9-20 16.8-22.9 1.8-2.8 3.9-5.2 4.6-5.2h1.3zm-116-11.9c-0.3 7.7-0.3 28.5-0.2 46.1l0.4 32.2-1 0.6c-1.3 0.8-2.6-0.6-9.2-10.3-6.7-9.9-23.1-32.1-27.7-37.5-1.8-2.2-3.3-4.4-3.3-4.9 0-0.4 8.3-9.4 18.5-19.8 10.2-10.5 18.5-19.5 18.5-20 0-0.6 1-0.9 2.2-0.7l2.2 0.3zm27.7-4.3c5.3 5.7 14.1 14.6 19.5 19.8 5.4 5.2 9.8 10 9.8 10.6 0 0.6-3 5.1-6.7 9.9-10.2 13.3-19.6 26.1-25.9 35.2l-5.8 8.3h-1.5-1.6l0.2-46.7c0.2-25.8 0.3-46.9 0.3-47.1 0.1-1.5 3.7 1.5 11.7 10zm-217.3 21.5c6 6.5 23.4 24.1 38.5 39.1l27.5 27.4-11 10.6c-6 5.9-12.4 12.4-14.2 14.5l-3.2 3.8-1.8-0.5c-1.6-0.6-9.2-9.7-9.2-11.2 0-0.3-1.3-2.3-2.8-4.3-4.3-5.5-11.3-17.5-16.6-28.6-2.7-5.5-5.3-10.9-5.9-11.9-0.5-1.1-1.3-3.1-1.7-4.5-0.5-1.4-1.8-5.1-3-8.1-4.1-10.5-10.4-34.6-9.6-36.6 0.9-2.3 1.5-1.8 13 10.3zm408.1-10.4c1 2.5-4.1 22.8-8.1 32.5-0.8 1.8-1.4 3.8-1.4 4.6 0 1.1-6.4 16.6-9.4 22.6-9 18.3-25.6 44-29.2 45.4l-1.6 0.6-14.4-14.6-14.4-14.5 29.2-29.2c16.1-16.1 33.4-33.6 38.3-39 9.2-9.9 10.2-10.7 11-8.4zm-261.7 43.7c2 3 12.2 17 22.7 31.1 10.4 14 20.6 28 22.5 31.1 5.4 8.7 7.3 8.4 14-2.7 1.3-2.2 2.8-4.5 3.2-5 6.8-8.9 41.3-55.9 44.1-60.1 2.2-3 4.5-5.8 5.2-6l1.3-0.5 22.8 23.1c12.6 12.7 23.1 23.3 23.3 23.5 0.2 0.2-5.9 6.4-13.5 13.8-7.7 7.4-26.3 26-41.5 41.3-26.5 26.8-32 32.4-43.7 44.8l-5.4 5.6h-3.8-3.8l-5.4-5.7c-15.9-17.1-93.5-94.9-97.4-97.7-1-0.8-1.7-1.7-1.4-2 0.3-0.3 10.9-11.1 23.5-24l23-23.4 3.3 3.7c1.8 1.9 5 6 7 9.1zm-54.9 59.2c6.9 7.3 26.7 27.2 43.9 44.2l31.2 31v1.9 1.9l-1.4-0.5c-0.8-0.3-3.2-0.9-5.3-1.2-6-1-23.7-5.9-28.8-8.1-1.6-0.6-5-2-7.5-2.9-26.6-10.2-75.3-43.1-73.8-49.9 0.3-1.4 27.5-29.6 28.6-29.6 0.3 0 6.1 5.9 13.1 13.2zm240.1 1.3l14 13.9-0.1 2v2.1l-7.2 6c-19.5 16.5-39.4 29.3-59.2 38-2.2 1-4.8 2.2-5.7 2.6-7.1 3.5-40.3 12.9-45.5 12.9-2.2 0 5.7-8.3 37-39.4 20.5-20.4 40.4-40.6 44.2-44.9 3.8-4.2 7.3-7.6 7.7-7.5 0.5 0.2 7.1 6.6 14.8 14.3z"/>
	</g>
</svg>